<?xml version="1.0" standalone="no"?>
<!DOCTYPE svg PUBLIC "-//W3C//DTD SVG 20010904//EN"
 "http://www.w3.org/TR/2001/REC-SVG-20010904/DTD/svg10.dtd">
<svg version="1.0" xmlns="http://www.w3.org/2000/svg"
 width="969.000000pt" height="969.000000pt" viewBox="0 0 969.000000 969.000000"
 preserveAspectRatio="xMidYMid meet">

<g transform="translate(0.000000,969.000000) scale(0.100000,-0.100000)"
fill="#2667ff" stroke="none">
<path d="M4485 8780 c-228 -19 -436 -60 -630 -125 -215 -72 -551 -256 -766
-418 -63 -48 -117 -87 -121 -87 -28 0 38 121 117 213 60 70 181 176 245 213
16 10 30 21 30 24 0 7 -72 4 -140 -5 -124 -17 -448 -114 -545 -163 -94 -47
-183 -112 -252 -185 -139 -146 -185 -237 -310 -602 -36 -104 -73 -206 -83
-225 -24 -46 -128 -163 -213 -241 -95 -87 -97 -91 -97 -268 l0 -149 -32 -27
c-18 -15 -116 -80 -218 -144 -214 -135 -524 -339 -593 -390 -53 -39 -56 -53
-36 -152 9 -44 8 -73 -4 -140 -45 -246 -23 -355 98 -479 30 -30 59 -68 64 -83
23 -62 6 -182 -48 -337 -16 -47 -32 -101 -36 -120 l-6 -36 118 -91 c133 -103
257 -225 296 -294 69 -117 96 -269 78 -435 -6 -60 -14 -126 -17 -146 -8 -47 6
-49 80 -12 68 34 148 118 237 250 45 67 75 103 77 93 2 -9 -15 -72 -37 -140
-114 -355 -141 -476 -141 -632 0 -227 82 -356 335 -524 105 -70 224 -137 231
-131 2 3 -10 72 -28 154 -29 132 -32 167 -33 309 0 152 1 162 25 205 22 41 25
43 27 20 43 -348 177 -617 436 -872 121 -120 358 -264 527 -320 112 -38 231
-70 237 -65 2 3 -20 44 -51 90 -73 113 -169 305 -194 392 -27 91 -52 234 -52
299 l0 51 29 -45 c15 -25 65 -106 111 -180 251 -410 346 -518 545 -617 72 -36
231 -93 340 -123 127 -34 610 -140 638 -140 5 0 -48 60 -119 133 -192 198
-312 380 -374 566 -34 103 -48 177 -31 167 6 -4 34 -37 62 -74 153 -203 464
-514 661 -663 158 -118 334 -180 633 -220 172 -23 710 -37 949 -24 l139 7
-274 137 c-317 158 -452 243 -564 356 -131 130 -202 253 -269 464 -40 122 -47
153 -117 471 -104 478 -183 640 -424 868 -47 45 -83 82 -79 82 31 0 257 -136
362 -217 149 -117 193 -200 287 -548 75 -277 107 -371 175 -513 123 -256 237
-378 520 -559 260 -166 632 -278 1050 -314 166 -14 514 -6 660 15 206 31 514
119 658 187 60 29 65 33 42 39 -14 4 -70 10 -126 13 -204 14 -338 68 -491 198
-203 173 -295 306 -392 564 -72 193 -102 343 -141 700 -40 372 -80 570 -146
734 -39 96 -69 146 -193 311 -48 63 -91 121 -95 129 -11 17 -9 16 91 -51 230
-154 335 -271 473 -528 75 -140 126 -210 182 -248 53 -36 402 -152 457 -152
16 0 16 0 -78 121 -178 230 -200 329 -251 1104 -39 602 -85 872 -184 1080 -72
153 -182 284 -431 515 -389 360 -612 480 -1196 644 -52 15 -124 38 -160 51
l-64 24 90 0 c94 1 327 -20 442 -40 350 -58 668 -201 976 -437 128 -99 190
-143 195 -137 8 8 -406 813 -461 896 -68 102 -162 195 -268 267 -152 101 -556
279 -743 327 -134 34 -236 45 -416 45 -365 0 -791 -42 -1160 -114 -68 -14
-126 -23 -128 -21 -16 15 241 102 483 163 240 61 464 104 680 132 210 27 231
31 214 40 -46 26 -458 100 -694 125 -177 19 -507 26 -650 15z m-1635 -1221
c-14 -11 -63 -43 -110 -72 -79 -48 -209 -162 -198 -173 3 -2 77 13 164 35 87
21 177 42 200 45 l41 7 -136 -139 c-75 -76 -151 -150 -170 -164 l-35 -26 45
-12 c176 -46 308 -110 384 -185 75 -74 90 -111 90 -226 0 -90 -2 -100 -35
-165 -46 -91 -100 -130 -260 -193 -164 -64 -224 -81 -339 -92 -53 -6 -98 -12
-101 -15 -8 -8 39 -39 112 -75 78 -38 85 -55 39 -98 -52 -48 -316 -201 -348
-201 -22 0 -51 18 -113 69 -102 85 -130 93 -206 56 -30 -15 -54 -30 -54 -35 0
-4 24 -14 53 -21 43 -10 62 -22 109 -71 54 -57 130 -159 122 -167 -2 -2 -38
19 -81 47 -93 59 -155 82 -225 82 -53 0 -233 -38 -224 -47 3 -3 45 -12 95 -19
169 -25 259 -69 393 -194 74 -70 81 -78 85 -122 4 -32 2 -48 -6 -48 -6 0 -41
27 -78 61 -93 84 -140 115 -206 134 -60 17 -85 16 -172 -12 l-50 -16 108 -28
c124 -33 138 -42 270 -177 89 -92 101 -117 77 -162 -15 -28 -78 -64 -93 -53
-7 5 -69 55 -138 110 -186 148 -248 179 -494 248 -221 62 -285 122 -285 272 0
81 12 101 77 129 106 47 237 116 319 170 134 88 139 84 -112 84 -207 0 -339
11 -357 29 -5 5 56 51 135 103 441 292 592 390 626 407 63 32 65 38 73 209 5
86 11 169 14 183 4 15 50 69 113 131 117 115 85 96 442 263 218 101 361 153
430 154 l35 1 -25 -21z m1774 -140 c18 -12 46 -43 62 -68 26 -41 29 -55 29
-126 0 -72 -4 -89 -42 -173 -49 -109 -176 -338 -244 -438 -54 -80 -135 -166
-213 -224 -81 -60 -346 -194 -346 -175 0 3 37 51 83 108 84 104 203 290 283
444 25 47 43 87 41 90 -2 2 -69 -15 -147 -37 -79 -22 -145 -39 -146 -37 -2 2
75 81 171 176 96 96 175 177 175 181 0 14 -106 -10 -300 -70 -259 -79 -343
-101 -365 -96 -12 3 -71 63 -131 132 -60 70 -124 145 -142 166 l-34 38 27 0
c14 0 87 -10 163 -21 260 -41 460 -14 793 104 70 25 137 48 150 50 43 9 100
-1 133 -24z m-1287 -1374 c83 -164 234 -246 538 -295 66 -10 156 -21 200 -25
331 -26 655 -62 808 -91 124 -23 340 -79 550 -141 103 -30 191 -52 194 -49 9
9 -28 83 -90 180 -62 97 -110 162 -237 321 -155 193 -162 208 -83 164 122 -68
157 -88 244 -145 147 -95 229 -167 383 -334 149 -162 215 -273 320 -538 104
-262 162 -493 277 -1107 34 -181 68 -361 75 -400 15 -82 18 -148 5 -125 -5 8
-37 101 -71 205 -160 492 -223 667 -301 831 -133 278 -388 528 -700 685 -317
159 -581 234 -1244 354 -396 71 -552 111 -673 172 -125 63 -180 117 -210 209
-19 58 -53 210 -52 232 1 14 33 -35 67 -103z m-1987 -751 c160 -49 184 -69
261 -216 62 -117 132 -198 219 -253 48 -30 62 -45 70 -74 14 -52 32 -238 28
-296 l-3 -50 -34 60 c-61 106 -130 203 -184 258 -50 51 -113 94 -124 84 -2 -3
13 -45 33 -93 37 -86 38 -93 39 -209 0 -106 -3 -130 -28 -207 -16 -48 -39
-101 -52 -118 -27 -37 -30 -33 -40 70 -21 206 -133 387 -337 546 -62 48 -116
90 -120 94 -4 3 3 51 16 105 13 55 29 149 35 208 6 60 14 113 17 119 10 16
106 3 204 -28z m1470 -70 c85 -52 144 -97 213 -163 112 -106 117 -134 127
-591 8 -351 9 -369 34 -465 32 -119 99 -264 186 -401 130 -205 161 -256 158
-259 -5 -5 -401 414 -445 472 -53 69 -99 178 -113 269 -7 43 -10 190 -8 399 3
365 0 390 -58 505 -18 36 -67 110 -108 165 -103 135 -102 141 14 69z m4525
-2371 c-5 -16 -9 -86 -11 -158 -2 -132 -13 -165 -35 -108 -10 27 -5 152 8 198
5 17 4 18 -11 6 -9 -7 -36 -42 -61 -77 -26 -35 -52 -64 -60 -64 -16 0 -50 56
-66 109 -7 22 -15 38 -19 36 -11 -7 -33 -116 -32 -162 1 -36 -2 -43 -17 -43
-35 0 -34 16 20 223 8 31 14 38 31 35 15 -2 26 -19 42 -63 39 -106 36 -105 93
-33 27 34 59 78 72 96 29 41 56 44 46 5z m-419 -26 c65 -34 62 -105 -6 -155
-37 -28 -164 -82 -191 -82 -28 0 -31 35 -15 130 9 49 11 89 6 94 -4 4 -6 15
-3 22 8 20 167 13 209 -9z"/>
<path d="M2033 6839 c-24 -36 -28 -53 -31 -135 l-4 -94 -150 -133 c-188 -166
-180 -159 -198 -181 -14 -18 -13 -19 14 -12 16 4 106 45 200 90 312 152 324
156 432 142 81 -10 125 3 204 61 95 69 173 111 262 139 43 14 78 29 78 34 0
28 -390 31 -480 4 -143 -42 -208 -42 -256 0 -22 18 -26 30 -26 69 1 25 -3 49
-8 52 -5 3 -22 -13 -37 -36z"/>
<path d="M6752 2740 c-20 -115 -20 -115 86 -79 66 22 102 56 102 95 0 36 -36
54 -110 54 l-66 0 -12 -70z"/>
</g>
</svg>
